<svg xmlns="http://www.w3.org/2000/svg" viewBox="0 0 64 64"><defs><linearGradient id="g" x1="8" y1="8" x2="56" y2="58"><stop stop-color="#FF9C52"/><stop offset="1" stop-color="#EF5D68"/></linearGradient></defs><rect width="64" height="64" rx="15" fill="url(#g)"/><path d="M19 18h26a4 4 0 0 1 4 4v20a4 4 0 0 1-4 4H19a4 4 0 0 1-4-4V22a4 4 0 0 1 4-4Z" fill="none" stroke="#fff" stroke-width="4"/><path d="M22 27h9M26.5 22.5v9M36 26h7M22 38h9M37 35l6 6M43 35l-6 6" stroke="#fff" stroke-width="3.5" stroke-linecap="round"/></svg>
